<?xml version="1.0" standalone="no"?>
<!DOCTYPE svg PUBLIC "-//W3C//DTD SVG 20010904//EN"
 "http://www.w3.org/TR/2001/REC-SVG-20010904/DTD/svg10.dtd">
<svg version="1.0" xmlns="http://www.w3.org/2000/svg"
 width="50.000000pt" height="50.000000pt" viewBox="0 0 50.000000 50.000000"
 preserveAspectRatio="xMidYMid meet">

<g transform="translate(0.000000,50.000000) scale(0.100000,-0.100000)"
fill="#000000" stroke="none">
<path d="M190 485 c-7 -9 -35 -15 -73 -17 l-62 -3 -3 -37 c-2 -29 1 -39 17
-48 20 -10 21 -20 21 -156 0 -141 1 -146 25 -169 23 -24 31 -25 135 -25 104 0
112 1 135 25 24 23 25 28 25 169 0 136 1 146 21 156 16 9 19 19 17 48 l-3 37
-65 3 c-44 2 -67 8 -73 18 -11 19 -100 19 -117 -1z m230 -60 c0 -13 -26 -15
-170 -15 -144 0 -170 2 -170 15 0 13 26 15 170 15 144 0 170 -2 170 -15z m-50
-204 l0 -148 -37 -7 c-48 -8 -118 -8 -165 0 l-38 7 0 148 0 149 120 0 120 0 0
-149z"/>
<path d="M155 318 c-3 -8 -4 -57 -3 -109 2 -76 6 -94 18 -94 12 0 15 18 15
104 0 75 -4 106 -12 108 -7 3 -15 -2 -18 -9z"/>
<path d="M235 318 c-3 -8 -4 -57 -3 -109 2 -76 6 -94 18 -94 12 0 15 18 15
104 0 75 -4 106 -12 108 -7 3 -15 -2 -18 -9z"/>
<path d="M315 318 c-3 -8 -4 -57 -3 -109 2 -76 6 -94 18 -94 12 0 15 18 15
104 0 75 -4 106 -12 108 -7 3 -15 -2 -18 -9z"/>
</g>
</svg>
